<svg width="80" height="48" viewBox="0 0 80 48" fill="none" xmlns="http://www.w3.org/2000/svg">
<path d="M67.2532 27.4886L67.0244 27.3846L66.7442 27.4817C66.7442 27.4817 66.7197 27.2137 66.4093 27.0308C66.4093 27.0308 66.2387 26.9268 66.0133 27.0308L65.9283 27.104L65.7879 26.8696L75.4393 16.9182L76.7608 17.4314L67.2532 27.4886ZM63.9854 29.6661L63.3521 30.2879L63.1569 30.0073L63.0531 29.957L63.1204 29.5844L63.2585 29.4066L63.6562 29.601L63.7024 29.549L63.9854 29.6661V29.6661ZM64.4413 30.9892L62.4095 33.153L62.6822 32.2117V31.4636L62.8768 30.9349L62.9903 30.3051L63.0109 30.2839L62.9955 30.2765L63.3395 30.4468C63.3395 30.4468 63.283 30.78 63.6077 30.9509C63.9324 31.1218 64.1435 30.8452 64.1435 30.8452L64.4413 30.9892V30.9892ZM49.4897 44.2973L60.3394 33.053L60.0752 33.928V34.6356L60.7194 34.9533L51.0463 45.2569L49.4897 44.2973ZM72.8466 15.6048L72.7838 15.8871L62.9492 25.5283L62.7376 25.4322V25.7363L65.837 27.2074L65.4227 27.6286L65.1728 27.5246L65.0752 27.6526L65.057 27.7869L64.8927 27.6955L64.54 27.7121L64.6148 27.3314L57.5743 24.0457L56.7379 24.8224L56.5753 26.1438L61.0338 28.3202V28.7305V28.9746L60.1728 28.5556L60.1243 28.8528L61.0338 29.3032L60.1243 28.8528L46.4297 42.4106L46.2197 42.2815V42.6181L49.2815 44.5127L50.8392 45.4769L54.0966 47.4927L67.4814 32.4558L67.5624 32.1711L64.3791 30.6097L64.8664 30.0645C64.9235 29.7307 64.6473 29.5844 64.6473 29.5844L64.7768 29.4221C64.8179 29.3323 64.6958 29.2266 64.6958 29.2266L64.2696 28.9106L64.3141 28.8608L64.3843 28.5031H64.8499L65.4284 28.7814L65.526 28.6717L65.5688 28.4642C65.5688 28.4642 65.7942 28.5619 65.9522 28.3973L66.6831 27.616L70.0199 29.1112L79.5264 18.5059L79.6251 18.2338L72.8466 15.6048V15.6048Z" fill="#333333"/>
<path d="M30.5702 19.344H30.5987L31.0329 19.0228V18.3678L30.6432 18.1809L30.1725 18.5021V18.6565L30.0218 18.5793L29.5471 18.9108V19.3194L30.1685 19.6406L30.5702 19.344Z" fill="#333333"/>
<path d="M54.3228 27.543L54.2937 27.2664L54.4444 26.3656C54.4815 26.4102 54.5357 26.4565 54.6156 26.5017C54.9454 26.6891 55.1462 26.4285 55.1462 26.4285L55.407 26.5565L54.3228 27.543ZM41.4054 39.2953L40.0428 38.4575L52.489 27.395L52.2636 28.1122L52.3287 28.8444L52.1929 29.481L41.4054 39.2953V39.2953ZM44.0152 17.8836V17.0812C44.0152 17.0194 43.9941 16.96 43.9559 16.9051L45.1724 16.9223L45.1832 16.4885L45.4457 16.4342L45.44 16.6308L45.2477 16.6845L45.1724 18.4271L44.0152 17.8836V17.8836ZM37.9151 21.5482V22.1523L37.251 21.8083C37.2612 21.7866 37.2704 21.7637 37.2789 21.7408C37.3326 21.7248 37.3851 21.7003 37.4353 21.6648L37.9939 21.2659C37.9431 21.3545 37.9151 21.4494 37.9151 21.5482V21.5482ZM33.4811 11.8688C33.5045 11.9483 33.5582 12.0054 33.5582 12.0054L33.5627 12.0391L33.4418 12.1231L33.4326 12.1197L33.4406 11.8974L33.4811 11.8688ZM33.751 11.9088L33.7596 11.8774L33.7801 11.8882L33.751 11.9088ZM34.5207 13.0365L34.9287 13.0239C34.923 13.041 34.9196 13.0559 34.9167 13.0707L34.3587 13.3462L34.1259 13.2371L34.1253 13.2308L34.4968 13.0284C34.5099 13.0347 34.5207 13.0365 34.5207 13.0365V13.0365ZM51.499 11.1333C51.7752 10.9252 51.8271 10.6229 51.7489 10.3188C51.7535 10.3165 51.7558 10.3154 51.7558 10.3154C51.8962 10.1937 51.9389 9.99249 51.9389 9.99249L52.3287 9.93705L52.6271 9.68101L52.7246 9.63814L52.7064 9.72387L53.8082 11.4322L53.9582 11.3293L53.7494 11.5276L52.6858 12.154L52.0548 12.7855L50.2763 12.0483L51.499 11.1333V11.1333ZM53.3597 15.5049L52.3446 16.0987L52.1501 16.2804L52.1558 15.9793L52.4342 15.7163L53.4407 15.098L53.7214 14.8413L53.9485 14.9402L53.3597 15.5049V15.5049ZM46.2223 16.5405L46.2445 16.7028C46.2445 16.7028 46.3118 16.7577 46.4397 16.8165L46.1932 16.9166L45.6557 16.6588L46.2223 16.5405ZM47.8724 13.1999L47.853 13.6183C47.7623 13.58 47.6618 13.5485 47.554 13.5257C47.6927 13.4548 47.8045 13.3399 47.8724 13.1999ZM47.4599 17.875L47.8302 17.6275L48.7391 16.7657L48.8338 16.704L49.3268 16.6777L48.6826 17.0663L47.8216 17.8716L47.449 18.0465L47.4599 17.875ZM52.4097 14.2715L51.8283 14.8236L51.3318 14.8413L51.7843 14.5533L52.1803 14.1721L52.4097 14.2715V14.2715ZM48.8812 12.6621L49.0392 12.5718L48.9017 12.6661V12.7233L50.8754 13.5583L50.7613 13.6263L49.9088 14.4556L49.118 14.9196L48.8937 14.9276L48.8755 15.0614L48.7716 15.1225L48.4909 15.3963L48.1086 15.4089L48.1691 14.7259L48.2638 14.4436L48.3517 14.1829C48.3517 14.1081 48.3311 14.0361 48.2929 13.9686L49.2184 14.3744L49.308 14.3092L49.381 13.0565L48.7123 12.7815L48.8812 12.6621V12.6621ZM50.4691 17.5058L49.6247 18.3271L48.5445 18.9781L47.784 19.6548L47.5831 19.5605L47.8056 19.4256L48.601 18.6689L49.6811 17.9859L50.5581 17.148L51.5196 16.5594L51.871 16.5405L51.5167 16.8714L50.4691 17.5058V17.5058ZM52.7343 24.5619V24.5259L52.7372 24.5636L52.7343 24.5619ZM55.1633 25.2615L55.1707 25.2655L54.5619 25.8021L54.5402 25.7918L54.5939 25.4689L54.7365 25.2615L55.0081 25.3872L55.1633 25.2615ZM27.8905 12.5889V12.7393L27.5373 12.9467L27.2167 12.7936L27.1876 12.0757L27.9984 12.4775L27.8905 12.5889ZM26.5217 8.97402L26.5468 9.32323L26.7374 9.40839L26.5708 9.51183L26.0122 9.2535L26.5217 8.97402V8.97402ZM37.4849 2.95697L38.3436 3.29417L29.6987 8.09215L29.624 8.05843L29.2628 8.2659V8.33391L29.1875 8.37563L29.1732 7.86754L28.8525 7.70866L28.852 7.69494L37.4849 2.95697V2.95697ZM23.125 10.2177L23.1638 10.236L23.1524 10.2422L23.125 10.2177V10.2177ZM20.9191 12.0563L20.8786 12.358L8.75943 19.0586L7.88529 18.5197L20.7132 11.5402L20.9191 12.0563V12.0563ZM3.23218 15.6729L2.41967 15.174L17.4203 7.65379L17.5818 7.73323C17.6628 8.13559 17.9795 8.10301 17.9795 8.10301L18.1906 8.01386L18.2522 8.04472L3.23218 15.6729V15.6729ZM18.7104 7.76581V7.86297L19.0351 8.01157L19.1429 7.97442L19.1309 7.60121L19.3032 7.45261L19.4333 7.55035L19.491 8.3762L18.4508 7.88355L18.7104 7.76581ZM32.1648 0.8646L32.9476 1.17208L21.3979 7.06855L20.6082 6.69877L32.1648 0.8646ZM56.9276 22.8113L67.1867 13.7131L68.3855 14.1789L58.2137 23.3863L57.9192 23.2542L57.7794 23.3337C57.7794 23.3337 57.7732 23.0468 57.4445 22.8822C57.4445 22.8822 57.2859 22.821 57.1763 22.8822L57.0485 22.9639L56.9276 22.8113ZM58.2159 27.5916L55.3898 26.1845L55.8691 25.7535C55.9667 25.5987 55.8201 25.4323 55.8201 25.4323L56.0152 25.2329C56.0637 25.1597 55.9667 25.066 55.9667 25.066L55.666 24.846V24.6796L55.7961 24.4602L55.8012 24.375L56.1715 24.407L56.6953 24.6328L56.7986 24.5476V24.2733L57.7486 23.4863H57.8034L60.7659 24.8225L70.9291 15.1665L70.9953 14.8911L64.7891 12.4992L64.7571 12.7695L54.3605 21.5745L54.1471 21.4751V21.7551L56.951 23.0776L56.5002 23.4434L56.4397 23.4314L56.3359 23.5286L56.3113 23.6572L56.135 23.5657L55.8469 23.6006L55.8691 23.232L53.1891 21.9552L52.6288 21.914L52.4827 21.8083L51.3233 21.2819L51.3969 21.2167H51.6828C51.6828 21.2167 51.9024 21.3208 51.7683 21.1316L51.7193 20.9115L51.8779 20.967L51.9692 20.875V20.8144C51.9692 20.8144 52.2859 20.9607 52.5232 20.7104C52.7612 20.4606 52.6818 20.0697 52.578 19.9297C52.4747 19.7896 52.2921 19.8994 52.2921 19.8994L52.3104 19.6125L52.2128 19.5576L52.2248 19.405L52.2796 19.3564L52.2978 18.7952L52.1643 18.746L52.0302 18.862L51.7375 18.8866L51.3296 19.2284L51.3239 19.5027L51.0557 19.7102C51.0557 19.7102 50.6232 19.5639 50.727 19.96L50.6357 20.0274L50.5016 20.0577L50.4834 20.8995H50.4828L49.009 20.2297L49.5191 19.8971L50.3795 19.0672L51.4271 18.4328L52.2231 17.6521L53.2382 17.0343L53.9445 16.3347L54.0906 15.0019L54.9105 15.3586L56.0882 14.399L54.2686 13.6486L54.3502 12.7964L53.6912 13.4102L53.3785 13.2816L53.6113 13.1382L54.3993 12.3895L54.5534 10.7629L54.2059 11.0938L53.1201 9.40667V9.35752C53.3215 9.38209 53.4795 9.25407 53.4795 9.25407C53.766 9.02832 53.6684 8.64997 53.4795 8.36363C53.2907 8.07672 52.9312 8.06472 52.7851 8.1013C52.6391 8.13788 52.5232 8.36363 52.5232 8.36363H52.493L51.3661 6.59418L50.9341 6.88737L52.0787 8.68654V8.72941L51.6708 9.01289L51.4939 9.37009C51.3427 9.32837 51.2417 9.3478 51.1829 9.37181L50.339 8.71341L50.2403 8.66425C50.2403 8.66425 50.331 8.46079 50.0954 8.36363C50.0954 8.36363 49.9259 8.35506 49.9094 8.42021C49.9094 8.42021 49.5756 8.42878 49.7222 8.76199C49.8683 9.01403 50.1119 8.79456 50.1119 8.79456L50.6962 9.2215C50.5781 9.20206 50.4663 9.21864 50.3715 9.28208L48.6986 10.4068C48.4863 10.5497 48.3882 10.7652 48.3745 11.0035L47.9842 11.2876C47.9854 11.279 47.9859 11.2733 47.9859 11.2733L48.035 11.1938V11.1693L48.0818 11.1373L48.035 11.1173V10.8218L47.9255 10.7732C47.9072 10.6463 47.7366 10.4326 47.6704 10.3806C47.6116 10.3274 47.4969 10.2914 47.3651 10.2914C47.2938 10.2914 47.2282 10.3017 47.1734 10.3194L47.1883 10.1571H46.9874L46.9572 10.4371L46.7187 10.5652L45.0771 9.87647L45.1256 9.82731L42.6407 8.79456L41.366 9.59985L43.8669 10.6732L43.9319 10.6326L46.7073 11.8242V11.9014C46.7489 12.054 46.8699 12.1883 46.9269 12.2449C46.7603 12.3243 46.6297 12.4655 46.564 12.6398L46.5435 12.6261L46.5874 11.8774L45.2597 11.3081L45.1421 11.3567L45.1016 12.5769L45.4155 12.7187L43.3482 14.1795L43.3768 13.0136L43.1029 14.0258V14.3527L42.987 14.4344L43.0259 12.8524L42.752 13.8652V15.182C42.7166 15.1957 42.6829 15.2128 42.6504 15.2323L42.4182 15.2397L42.6088 14.4578L42.651 12.7193L42.3771 13.732V15.2408L41.9509 15.2546V15.1471L41.7557 15.0414C41.6827 14.8219 41.4476 14.8299 41.4476 14.8299L41.2685 14.8459L40.6026 14.5287L39.8312 14.407L39.7016 14.6424L39.1333 14.7568V14.9031L39.377 15.0494V15.3586L39.5556 15.4477V15.7872L36.3232 14.2687L35.8314 14.0378L36.2667 13.7154L37.3628 13.1296L38.2643 12.4626L39.3359 11.9425L40.1724 11.2916L41.1629 10.7629L41.2034 9.30723L40.1889 9.80331L39.3199 10.4457L38.2558 10.9584L37.3628 11.6253L36.2582 12.17L35.3355 12.8536C35.3834 12.7055 35.2819 12.6032 35.2819 12.6032H35.2762L35.3247 12.5769L36.2582 11.8694L37.3708 11.3242L38.2723 10.6412L39.3439 10.0714L40.1969 9.43696L41.2034 8.93287L41.2445 7.41204L40.1889 7.93213L39.3359 8.5991L38.2558 9.11976L37.3383 9.79474L36.2422 10.348L35.3081 11.0315L34.1715 11.6168L33.9245 11.7882C33.9239 11.7831 33.9239 11.7797 33.9239 11.7797L33.8509 11.7431V11.6391L33.9946 11.5008L34.139 11.3973L35.3167 10.7629L36.2422 10.0474L37.3708 9.46154L38.2643 8.76199L39.3439 8.22532L40.2209 7.55035L41.2445 7.00511V5.4757L40.2129 5.99636L39.3359 6.6719L38.2398 7.21657L37.3143 7.92412L36.1851 8.49337L35.2271 9.20949L34.074 9.79474L33.0834 10.5029L32.4746 10.6246L31.9628 10.3886L31.6786 10.4617L31.7494 12.1214L30.7446 11.6494L30.7526 11.5928L30.2008 11.3322L30.1558 11.3121V11.019L30.5375 10.7875L30.9112 10.9664L31.2604 10.7509L31.2399 10.1731L31.0533 10.0879L31.2319 9.9822L31.2033 9.40839L31.0088 9.31923L31.1874 9.21349L31.1839 9.08719L40.113 3.99029L40.1421 3.76397L35.7692 2.04938V2.28199L24.2474 8.43793L24.0334 8.33905V8.5831L26.1137 9.55927H25.7183L24.9144 9.93305L24.9754 11.0572L23.9969 10.584L24.4516 10.34C24.4722 10.2697 24.4796 10.2062 24.4773 10.1491L24.5492 10.1119V8.82714L22.8466 8.02986L22.8489 7.97213L34.5932 1.81962L34.624 1.61045L30.55 -0.000123511L30.5358 0.223919L18.9814 5.93578L18.7469 5.82547V6.14781L20.1146 6.78964L19.3032 7.192L19.1184 7.07026L18.7469 7.03997L18.5803 7.06226L17.6548 7.54177L17.4762 7.40346L15.7873 6.58218V6.85079L0.822033 14.1909L0.564697 14.0326V14.3172L2.16233 15.3031L2.97485 15.8038L4.63125 16.8257L19.9286 8.88429V8.68369L20.4319 8.92544V9.86504L6.1433 17.4458L5.8717 17.2778V17.5904L7.61655 18.666L8.49239 19.2061L10.3285 20.3383L21.0127 14.2767L21.0002 14.4476L22.1699 15.0574L22.2914 14.1955L22.062 13.6811L25.6287 11.6574L23.7481 10.7709L21.8988 11.7939L21.9097 11.0641L21.8498 10.9218L22.8934 10.3537L21.6814 9.75188L23.1439 10.4783C23.1524 10.8035 23.5176 10.8281 23.5176 10.8281L23.6962 10.7469L25.6287 11.6574V11.4442L25.8958 11.5739L25.8484 12.4221L26.124 13.1296L25.9945 14.0246L26.2541 14.7648L26.1326 15.6272L26.3842 16.3182L26.2786 17.2046L27.5294 17.8716L27.6589 16.9771L27.4073 16.3022L27.5334 15.4574L27.5779 15.4803L27.8985 15.2934L28.4383 15.562L28.7961 15.3546V15.0534L28.8326 15.0208L29.0112 15.1305L28.8525 15.2363L28.8771 15.7815L29.1898 15.9278L29.2057 16.3102L29.3478 16.3873L29.5469 16.2616L30.1073 16.5462L30.4485 16.3307L30.4279 15.7735L30.3629 15.7569L30.6105 15.5946L31.1588 15.8832L31.504 15.6512L31.4835 15.1065L31.3294 15.0374L31.4675 14.9396L31.443 14.3864L31.2889 14.3132L31.4881 14.1829L31.8447 14.3555L31.8978 15.5946L33.5382 16.3833L33.6517 16.1639V15.4072L33.8172 15.3088L34.4072 15.5946L34.4614 15.6209L34.4294 15.6535C34.3621 15.8792 34.5692 15.9947 34.5692 15.9947H34.697C34.5755 16.2204 34.7826 16.2999 34.7826 16.2999L35.008 16.3062L35.0873 16.3856L35.2026 16.3913L35.2939 16.4525L35.7572 16.9406L35.6231 16.9468C35.574 17.2029 35.7754 17.2823 35.7754 17.2823L36.0676 17.2943C36.1052 17.3201 36.1423 17.3383 36.1777 17.3515L35.4747 17.811L35.3937 17.7864L35.2111 17.8716L35.2014 18.0848L35.2756 18.1282L35.4177 18.051L36.0796 18.3842V18.6283L36.5708 18.8883L36.7129 18.8072L36.7215 18.7054L36.9274 18.8169L35.97 19.4782C35.909 19.5204 35.8616 19.5742 35.8274 19.637C35.7429 19.6428 35.6625 19.6679 35.5889 19.7171L34.3165 20.5698C34.2782 20.4183 34.2006 20.3 34.0745 20.236L31.8116 19.0855C31.3956 18.8712 30.8079 19.3844 30.477 20.0017L30.0993 19.7913L29.6405 20.1125V20.5195L30.2248 20.8355C30.2168 21.1144 30.311 21.3533 30.5535 21.4848L32.7565 22.6519C32.8141 22.6821 32.8729 22.7027 32.9311 22.7141L32.7993 23.0611L32.4946 23.2765C32.486 23.2828 32.478 23.2914 32.4706 23.3005C32.4027 23.388 32.4147 23.6046 32.6207 23.8583C32.8478 24.139 33.1644 24.0412 33.1644 24.0412L33.5582 23.7606L33.8269 23.52C34.127 23.7263 34.4477 23.8006 34.705 23.6275L34.8231 23.5486C34.8722 23.632 34.9401 23.7012 35.0308 23.7498L39.7473 26.2788C39.9013 26.3616 40.0708 26.3451 40.2397 26.2611L40.3835 26.3245L39.935 26.6703V27.0978L39.1613 27.6893V28.1648L39.5693 28.3906L39.8072 28.2077V28.4272L40.2026 28.6346L40.3612 28.5129L40.3675 28.7261L40.7755 28.9398L40.9826 28.7506L40.97 28.7998L40.8485 28.9581L40.8422 29.0861L41.2627 29.3239L41.9845 28.7203V28.4517L42.0484 28.3786L42.3041 28.5192L43.516 27.5184L43.5223 27.427H43.577L44.0335 27.0486V26.5605L43.6375 26.3474V26.1399L43.1017 25.9324V25.841L42.6025 25.5969V25.5478L42.1945 25.3163L41.4881 25.8776L41.1532 25.7312L40.9849 25.8604L40.8548 25.8044V25.6632C41.3101 24.9888 41.5463 24.0132 41.0294 23.7646L41.022 23.7606L40.5501 23.5166C40.6614 23.3943 40.7247 23.2537 40.7247 23.1039V21.5482C40.7247 21.0767 40.0959 20.6944 39.3199 20.6944C39.078 20.6944 38.8503 20.7315 38.6512 20.7972L40.6414 19.377C40.7275 19.3153 40.7937 19.2444 40.8422 19.1672C40.8736 19.1667 40.9039 19.1638 40.9341 19.1581C40.9552 19.3427 41.0271 19.4902 41.1652 19.557L42.0827 20.0011C42.0753 20.1057 42.0684 20.2069 42.0644 20.2874C42.0484 20.5966 42.2795 21.0767 42.3223 21.1173C42.3223 21.1173 42.1723 21.4116 42.2276 21.7608C42.2453 21.8683 42.2887 21.9552 42.3474 22.0237C42.223 22.142 42.1454 22.3089 42.1454 22.4941C42.1454 22.7107 42.2516 22.9016 42.4136 23.0199C42.3189 23.1234 42.2402 23.2771 42.2276 23.5086L42.1454 24.5499L41.9811 24.8099C41.9811 24.8099 41.9509 25.3552 42.7953 25.3552C43.4692 25.298 43.4447 24.9077 43.4447 24.9077L43.3151 24.5825L43.3071 23.4354C43.3071 23.4354 43.2826 23.2079 43.1645 23.0291C43.334 22.9119 43.4447 22.7159 43.4447 22.4941C43.4447 22.3089 43.3671 22.142 43.2432 22.0237C43.3049 21.9569 43.3534 21.8797 43.3768 21.8003C43.4447 21.5728 43.4121 21.3693 43.3311 21.2065C43.3311 21.2065 43.3979 21.1293 43.4732 21.0093H43.7716L43.8977 20.8761L43.8966 20.8755C44.175 20.9773 44.4289 20.8104 44.6121 20.5361L45.072 20.7572L45.02 21.9552V22.0037L46.9526 22.9633L47.1478 22.7844L47.2111 21.786L50.662 23.4451L50.5621 23.5166V24.0412L50.1724 23.8583L49.8318 24.1264L49.789 24.7059L49.9248 24.7774L49.7587 24.9077L49.7262 25.4769L49.8398 25.5421L49.7017 25.6638L49.6817 26.1462L37.2972 36.7686L37.0752 36.6326V36.9589L39.8186 38.6569L41.1806 39.4999L44.0632 41.2837L58.1104 27.8848L58.2159 27.5916V27.5916Z" fill="#333333"/>
</svg>
